# xmcd
#
# Track frame offsets:
#	187
#	17287
#	37312
#	59137
#	80212
#	97312
#	116287
#	134362
#	152287
#	171262
#	188662
#	207937
#	227887
#	248887
#	267937
#
# Disc length: 3810 seconds
#
# Revision: 2
# Processed by: cddbd v1.4b41PL2 Copyright (c) Steve Scherf et al.
# Submitted via: EZCDDA 4.3.2
#
DISCID=d30ee00f
DTITLE=Miguel Rios - Canciones de amor para tiempos dificiles
DYEAR=1900
DGENRE=
TTITLE0=Santa Lucia
TTITLE1=Cancion de Amor ...
TTITLE2=Corazones Rotos
TTITLE3=Verano del 78 (Mojacar)
TTITLE4=Compañera
TTITLE5=Sal fuera de Ti
TTITLE6=Buscando al Luz
TTITLE7=En la Frontera
TTITLE8=La Encrucijada
TTITLE9=Todo a Pulmon
TTITLE10=Santiago de Chile
TTITLE11=Hasta que Olvides
TTITLE12=Directo al Corazon
TTITLE13=El blues de la Soledad
TTITLE14=En el Parque
EXTD=
EXTT0=
EXTT1=
EXTT2=
EXTT3=
EXTT4=
EXTT5=
EXTT6=
EXTT7=
EXTT8=
EXTT9=
EXTT10=
EXTT11=
EXTT12=
EXTT13=
EXTT14=
PLAYORDER=
